# xmcd
# Copyright (C) 1995-1998 Ti Kan
#
# Track frame offsets:
#       150
#       66663
#       141073
#       208829
#
# Disc length: 3811 seconds
#
# Revision: 0
# Processed by: cddbd v1.5.2PL0 Copyright (c) Steve Scherf et al.
# Submitted via: CD-Transfer v1.0
#
DISCID=400ee104
DTITLE=Friday Night Life Mixed By Dj U.r.s. - 
DYEAR=1900
DGENRE=
TTITLE0=Latin
TTITLE1=Cooldown
TTITLE2=Dancefast
TTITLE3=Easy 90ies
EXTD=
EXTT0=
EXTT1=
EXTT2=
EXTT3=
PLAYORDER=
